<?xml version="1.0" encoding="iso-8859-1"?>
<!-- Generator: Adobe Illustrator 19.0.0, SVG Export Plug-In . SVG Version: 6.00 Build 0)  -->
<svg version="1.1" id="Capa_1" xmlns="http://www.w3.org/2000/svg" xmlns:xlink="http://www.w3.org/1999/xlink" x="0px" y="0px"
	 viewBox="0 0 512 512" style="enable-background:new 0 0 512 512;" xml:space="preserve" fill="white">
<g>
	<g>
		<path d="M500.418,11.573c-15.457-15.431-40.615-15.431-56.099,0.009L299.983,155.918c-3.42,3.42-3.42,8.949,0,12.369
			l43.738,43.738c1.706,1.706,3.945,2.563,6.185,2.563c2.239,0,4.479-0.857,6.185-2.563L500.436,67.68
			C515.858,52.214,515.858,27.056,500.418,11.573z M488.058,55.32L349.906,193.471l-31.369-31.369L456.68,23.959
			c8.651-8.616,22.735-8.634,31.369-0.018C496.674,32.593,496.674,46.677,488.058,55.32z"/>
	</g>
</g>
<g>
	<g>
		<path d="M329.769,182.073c-2.694-2.633-6.779-3.228-10.112-1.513L56.177,316.332C21.545,334.177,0.018,369.465,0,408.427
			c0,57.113,46.468,103.572,103.572,103.572h7.952c0.044,0,0.079,0,0.122,0c39.408,0,75.956-22.901,93.136-58.373L331.527,192.15
			C333.181,188.765,332.472,184.706,329.769,182.073z M189.037,445.998c-14.276,29.471-44.648,48.506-77.408,48.506
			c-0.026,0-0.07,0-0.096,0h-7.96c-47.465,0-86.077-38.612-86.077-86.077c0.018-32.375,17.915-61.706,46.695-76.551l240.158-123.744
			L189.037,445.998z"/>
	</g>
</g>
<g>
	<g>
		<path d="M329.848,182.161c-2.878-2.878-7.348-3.377-10.786-1.251c-8.197,5.082-201.493,124.995-258.607,172.521
			c-61.601,51.253-31.457,123.945-31.142,124.672c0.884,2.064,2.537,3.709,4.601,4.601c0.359,0.149,18.37,7.61,42.697,7.61
			c24.765,0,56.072-7.733,81.966-38.743c47.613-57.035,167.448-250.41,172.53-258.616C333.242,189.5,332.717,185.03,329.848,182.161
			z M145.15,440.347c-37.597,45.024-87.59,32.069-101,27.511c-4.601-13.454-17.592-63.482,27.494-100.992
			c42.339-35.236,165.514-113.851,224.473-150.967C259.035,274.859,180.447,398.07,145.15,440.347z"/>
	</g>
</g>
<g>
	<g>
		<path d="M329.944,182.257c-3.184-3.289-8.372-3.56-11.879-0.63L89.051,372.492c-59.755,49.73-60.446,100.047-60.446,102.164
			c0,2.327,0.919,4.549,2.563,6.193c1.645,1.636,3.866,2.554,6.185,2.554c0.009,0,0.017,0,0.018,0
			c1.723,0,42.794-0.779,92.594-60.438c47.132-56.449,198.712-227.098,200.234-228.812
			C333.242,190.733,333.128,185.546,329.944,182.257z M116.536,411.76c-29.707,35.577-55.303,47.788-68.862,51.979
			c3.552-15.816,15.09-46.616,52.573-77.802l140.636-117.21C195.256,320.496,141.432,381.931,116.536,411.76z"/>
	</g>
</g>
<g>
</g>
<g>
</g>
<g>
</g>
<g>
</g>
<g>
</g>
<g>
</g>
<g>
</g>
<g>
</g>
<g>
</g>
<g>
</g>
<g>
</g>
<g>
</g>
<g>
</g>
<g>
</g>
<g>
</g>
</svg>
