<svg height="479pt" viewBox="-55 0 479 479.90674" width="479pt" xmlns="http://www.w3.org/2000/svg" fill="white"><path d="m32.453125 156.363281v1.222657h1.230469l133.167968 133.160156 33.9375 33.960937 11.3125 11.3125c34.367188 34.363281 90.089844 34.359375 124.453126-.007812 34.367187-34.371094 34.363281-90.089844-.007813-124.457031l-11.296875-11.3125-33.957031-33.933594-164.050781-164.058594c-3.171876-3-8.136719-3-11.308594 0l-113.136719 113.144531c-3.125 3.125-3.125 8.1875 0 11.3125zm292.796875 66.503907c28.125 28.121093 28.125 73.71875 0 101.839843-28.121094 28.121094-73.714844 28.121094-101.839844 0l-5.65625-5.65625 101.824219-101.839843zm-16.964844-16.96875-101.824218 101.824218-22.648438-22.632812 101.824219-101.824219zm-43.832031-43.816407 9.871094 9.871094-101.824219 101.824219-115.296875-115.292969c4.730469.390625 8.800781.871094 12.945313 1.367187 13.128906 1.714844 26.359374 2.515626 39.597656 2.398438 13.25.117188 26.496094-.683594 39.632812-2.398438 12.503906-1.636718 25.109375-2.390624 37.722656-2.265624 12.609376-.125 25.214844.628906 37.71875 2.265624 13.140626 1.714844 26.382813 2.515626 39.632813 2.398438zm-142.867187-142.863281 126.664062 126.664062c-8.886719-.417968-15.117188-1.152343-21.519531-1.921874-13.136719-1.710938-26.378907-2.515626-39.628907-2.398438-13.253906-.117188-26.496093.6875-39.632812 2.398438-12.507812 1.636718-25.109375 2.394531-37.722656 2.265624-12.601563.125-25.199219-.628906-37.695313-2.265624-10.503906-1.367188-21.078125-2.136719-31.671875-2.292969l-20.617187-20.617188zm0 0"/><path d="m308.261719 251.144531 11.3125-11.316406 11.3125 11.316406-11.3125 11.3125zm0 0"/><path d="m308.265625 296.40625 11.316406-11.316406 11.3125 11.316406-11.3125 11.3125zm0 0"/><path d="m263.011719 296.40625 11.3125-11.3125 11.3125 11.3125-11.3125 11.3125zm0 0"/><path d="m285.644531 319.03125 11.3125-11.3125 11.3125 11.3125-11.3125 11.316406zm0 0" fill="white " /></svg>
