<?xml version="1.0" ?><!DOCTYPE svg  PUBLIC '-//W3C//DTD SVG 1.1//EN'  'http://www.w3.org/Graphics/SVG/1.1/DTD/svg11.dtd'><svg enable-background="new 0 0 48 48" height="70px" version="1.1" viewBox="0 0 48 48" width="70px" xml:space="preserve" xmlns="http://www.w3.org/2000/svg" xmlns:xlink="http://www.w3.org/1999/xlink" fill="white"><g id="Expanded"><g><g><path d="M35,32H13c-2.757,0-5-2.243-5-5V5c0-0.553,0.447-1,1-1h30c0.553,0,1,0.447,1,1v22C40,29.757,37.757,32,35,32z M10,6v21     c0,1.654,1.346,3,3,3h22c1.654,0,3-1.346,3-3V6H10z"/><path d="M9,12H5c-0.553,0-1-0.447-1-1s0.447-1,1-1h4c0.553,0,1,0.447,1,1S9.553,12,9,12z"/></g><g><path d="M43,11.333h-4c-0.553,0-1-0.447-1-1s0.447-1,1-1h4c0.553,0,1,0.447,1,1S43.553,11.333,43,11.333z"/></g><g><path d="M41,6H7C6.447,6,6,5.553,6,5s0.447-1,1-1h34c0.553,0,1,0.447,1,1S41.553,6,41,6z"/></g><g></g></g></g></svg>
